<svg id="logiciel-logo" width="200" xmlns="http://www.w3.org/2000/svg" xmlns:xlink="http://www.w3.org/1999/xlink" viewBox="0 0 192.83 50"><defs></defs><g id="Layer_2-2"><g><path class="cls-6" d="m44.53,0H5.47C2.45,0,0,2.45,0,5.47v39.07c0,3.02,2.45,5.47,5.47,5.47h39.07c3.02,0,5.47-2.45,5.47-5.47V5.47c0-3.02-2.45-5.47-5.47-5.47Z"></path><g class="cls-5"><path class="cls-1" d="m71.7,30.97h-12.41s-.2,0-.2-.13V9.28c0-.1.07-.17.2-.17h4.04c.17,0,.17.07.17.17v17.33h8.21c.13,0,.17.07.17.17v4.01c0,.17-.03.2-.17.2Z"></path><path class="cls-1" d="m85.35,31.44c-6.34,0-11.48-5.1-11.48-11.4s5.14-11.36,11.48-11.36,11.45,5.1,11.45,11.36-5.14,11.4-11.45,11.4Zm-.03-18.32c-3.84,0-6.94,3.11-6.94,6.89s3.1,6.92,6.94,6.92,6.94-3.11,6.94-6.92-3.14-6.89-6.94-6.89Z"></path><path class="cls-1" d="m111.28,31.3c-6.47,0-12.15-4.54-12.15-11.26,0-7.19,6.21-11.3,12.95-11.3,2.17,0,4.6.37,6.57,1.29l.07.13c0,1.46.03,2.92.03,4.37,0,.07-.07.13-.17.13-.17,0-.33-.17-.5-.26-2.07-1.03-4.21-1.69-6.54-1.69-4.4,0-7.94,2.78-7.94,7.35,0,4.24,3.4,7.25,7.58,7.25,1.1,0,2.2-.2,3.17-.7v-4.01l-.07-.1h-3.24l-.1-.1v-4.21c0-.07.03-.07.07-.07h7.61c.1,0,.13.1.13.17v11.3c-2.3,1.13-4.91,1.69-7.48,1.69Z"></path><path class="cls-1" d="m126.66,30.97h-4.04c-.13,0-.2,0-.2-.13V9.28c0-.1.07-.17.2-.17h4.04c.17,0,.17.07.17.17v21.53c0,.13-.03.17-.17.17Z"></path><path class="cls-1" d="m149.38,15.87c0,.1-.03.17-.13.17-.07,0-.1,0-.13-.03-1.7-1.89-4.24-2.92-6.77-2.92-4.17,0-7.54,2.85-7.54,7.09s3.54,6.79,7.48,6.79c2.6,0,5.17-1.09,6.84-3.08.2,0,.23.13.23.26v5.23c-2.14,1.33-4.67,1.89-7.17,1.89-6.41,0-12.01-4.64-12.01-11.23s5.57-11.26,12.11-11.26c2.07,0,5.57.53,7.11,1.92v5.17Z"></path><path class="cls-1" d="m157.29,30.97h-4.04c-.13,0-.2,0-.2-.13V9.28c0-.1.07-.17.2-.17h4.04c.17,0,.17.07.17.17v21.53c0,.13-.03.17-.17.17Z"></path><path class="cls-1" d="m161.66,9.08h14.45c.13.03.17.1.17.17v4.08c0,.13-.03.2-.17.2h-10.45v4.14h7.74c.17,0,.17.07.17.17v4.04c0,.13-.03.17-.17.17h-7.54v4.57h10.71c.13,0,.13.07.13.17v4.04c0,.13-.03.17-.17.17h-14.88c-.13,0-.2,0-.2-.13V9.28c0-.13.07-.2.2-.2Z"></path><path class="cls-1" d="m192.66,30.97h-12.41s-.2,0-.2-.13V9.28c0-.1.07-.17.2-.17h4.04c.17,0,.17.07.17.17v17.33h8.21c.13,0,.17.07.17.17v4.01c0,.17-.03.2-.17.2Z"></path></g><g class="cls-2"><g><path class="cls-1" d="m60.95,43.63c-.05,0-.12-.01-.17-.01-.79-.04-1.5-.44-1.91-1.13-.09-.14-.19-.3-.19-.52.4-.26.81-.48,1.21-.72.09.2.14.4.28.58.21.24.48.41.81.41.04,0,.1,0,.14-.01.4-.06.79-.49.79-.9,0-.11-.02-.22-.08-.31-.35-.65-1.14-.71-1.74-1-.74-.37-1.28-1.11-1.28-1.9v-.08c.02-.79.63-1.58,1.41-1.79.21-.05.42-.08.62-.08.48,0,1.96.4,1.96,1.14,0,.02-.02.06-.02.06,0,0-.97.65-1.13.68-.16-.27-.39-.59-.74-.59-.48,0-.73.29-.73.62,0,.17.09.37.24.51.82.54,1.96.51,2.55,1.45.24.38.38.85.38,1.31,0,.36-.09.72-.27,1.02-.46.75-1.2,1.24-2.13,1.24Z"></path><path class="cls-1" d="m67.87,43.66c-2.08,0-3.76-1.67-3.76-3.73s1.68-3.72,3.76-3.72,3.75,1.67,3.75,3.72-1.68,3.73-3.75,3.73Zm-.01-6c-1.26,0-2.27,1.02-2.27,2.26s1.02,2.27,2.27,2.27,2.27-1.02,2.27-2.27-1.03-2.26-2.27-2.26Z"></path><path class="cls-1" d="m76.84,43.5h-4.06s-.07,0-.07-.04v-7.06s.02-.05.07-.05h1.32c.05,0,.05.02.05.05v5.67h2.69s.05.02.05.05v1.31c0,.05-.01.07-.05.07Z"></path><path class="cls-1" d="m82,43.45c-.36.12-.74.18-1.11.18-.72,0-1.44-.23-2.01-.68-.67-.54-1.22-1.3-1.22-2.15v-4.41s.03-.05.04-.05h1.34s.05.01.05.06v4.39c.05.61.66,1.24,1.25,1.39.19.04.36.08.55.08.47,0,.93-.17,1.29-.52.4-.4.55-.92.55-1.46v-.07c-.01-1.12-.01-3.42-.01-3.82,0-.04.02-.05.04-.05h1.29s.07.01.07.06c-.01.45-.01,2.95-.01,4.21-.02,1.21-.92,2.42-2.1,2.83Z"></path><path class="cls-1" d="m90.55,37.77h-2.09c0,1.89.01,3.78.01,5.67,0,.04-.02.05-.07.05h-1.32s-.07,0-.07-.04c0-1.92,0-3.71.01-5.69h-2.11s-.07,0-.07-.04v-1.33s.02-.05.07-.05h5.64s.05.02.05.04v1.33s-.02.05-.07.05Z"></path><path class="cls-1" d="m92.88,43.5h-1.32s-.07,0-.07-.04v-7.06s.02-.05.07-.05h1.32c.05,0,.05.02.05.05v7.05s-.01.05-.05.05Z"></path><path class="cls-1" d="m97.78,43.66c-2.08,0-3.76-1.67-3.76-3.73s1.68-3.72,3.76-3.72,3.75,1.67,3.75,3.72-1.68,3.73-3.75,3.73Zm-.01-6c-1.26,0-2.27,1.02-2.27,2.26s1.02,2.27,2.27,2.27,2.27-1.02,2.27-2.27-1.03-2.26-2.27-2.26Z"></path><path class="cls-1" d="m104.06,38.58v4.86c0,.05-.04.07-.08.07h-1.32s-.04-.01-.04-.09v-7.05s0-.02.02-.02h1.42l3.66,4.84v-4.79s0-.05.07-.05h1.28c.09,0,.1.03.1.05v7.04c0,.07-.04.07-.07.07h-1.38l-3.66-4.93Z"></path><path class="cls-1" d="m112.52,43.63c-.05,0-.12-.01-.17-.01-.79-.04-1.5-.44-1.91-1.13-.09-.14-.19-.3-.19-.52.4-.26.81-.48,1.21-.72.09.2.14.4.28.58.21.24.48.41.81.41.04,0,.1,0,.14-.01.4-.06.79-.49.79-.9,0-.11-.02-.22-.08-.31-.35-.65-1.14-.71-1.74-1-.74-.37-1.28-1.11-1.28-1.9v-.08c.02-.79.63-1.58,1.41-1.79.21-.05.42-.08.62-.08.48,0,1.96.4,1.96,1.14,0,.02-.02.06-.02.06,0,0-.97.65-1.13.68-.16-.27-.39-.59-.74-.59-.48,0-.73.29-.73.62,0,.17.09.37.24.51.82.54,1.96.51,2.55,1.45.24.38.38.85.38,1.31,0,.36-.09.72-.27,1.02-.46.75-1.2,1.24-2.13,1.24Z"></path></g></g><circle class="cls-4" cx="85.36" cy="19.83" r="2.1"></circle></g><path class="cls-3" d="m40.72,37.05c-1.81,1.8-4.3,2.76-7.48,2.87-1.96.07-3.7-.1-5.28-.46v.04H8.77V10.98h5.69v23.15h7.19l3.1-2.99c2.1,1.97,4.33,3.06,6.71,3.29,2.38.23,4.01-.17,4.88-1.18s1.08-2.04.59-3.08c-.48-1.04-2.75-1.97-6.8-2.78-4.05-.82-6.61-2.45-7.69-4.89-1.08-2.45-.85-5.02.68-7.72,1.53-2.7,4.33-4.1,8.41-4.22,4.08-.11,7.73,1.32,10.96,4.3l-4.08,4.05c-2.27-1.8-4.53-2.71-6.8-2.74-2.27-.03-3.53.72-3.78,2.24-.25,1.52.96,2.56,3.65,3.12,2.69.56,5.22,1.41,7.6,2.53,2.38,1.13,3.7,3.12,3.95,5.99.25,2.87-.52,5.2-2.34,7Z"></path></g></svg>